<svg width="1024" height="1024" viewBox="0 0 1024 1024" fill="none" xmlns="http://www.w3.org/2000/svg">
<path d="M250.8 648.153C245.2 648.153 241.2 649.42 238.8 651.953C236.4 654.353 235.2 658.153 235.2 663.353V677.953H260.8L258.8 692.153H235.2V783.353H216.8V692.153H198V677.953H216.8V663.553C216.8 654.486 219.667 647.22 225.4 641.753C231.267 636.153 239.4 633.353 249.8 633.353C254.6 633.353 258.867 633.82 262.6 634.753C266.467 635.553 270.6 636.886 275 638.753L269.2 652.153C263.2 649.486 257.067 648.153 250.8 648.153ZM335.639 727.553C335.639 730.62 335.506 733.753 335.239 736.953H268.039C268.839 748.553 271.772 757.086 276.839 762.553C281.906 768.02 288.439 770.753 296.439 770.753C301.506 770.753 306.172 770.02 310.439 768.553C314.706 767.086 319.172 764.753 323.839 761.553L331.839 772.553C320.639 781.353 308.372 785.753 295.039 785.753C280.372 785.753 268.906 780.953 260.639 771.353C252.506 761.753 248.439 748.553 248.439 731.753C248.439 720.82 250.172 711.153 253.639 702.753C257.239 694.22 262.306 687.553 268.839 682.753C275.506 677.953 283.306 675.553 292.239 675.553C306.239 675.553 316.972 680.153 324.439 689.353C331.906 698.553 335.639 711.286 335.639 727.553ZM317.439 722.153C317.439 711.753 315.372 703.82 311.239 698.353C307.106 692.886 300.906 690.153 292.639 690.153C277.572 690.153 269.372 701.22 268.039 723.353H317.439V722.153ZM394.223 778.553C387.29 783.353 379.423 785.753 370.623 785.753C361.69 785.753 354.69 783.22 349.623 778.153C344.69 772.953 342.223 765.486 342.223 755.753V692.153H323.823V677.953H342.223V654.153L360.623 651.953V677.953H385.623L383.623 692.153H360.623V754.953C360.623 760.42 361.557 764.42 363.423 766.953C365.423 769.353 368.69 770.553 373.223 770.553C377.357 770.553 382.023 769.153 387.223 766.353L394.223 778.553ZM424.759 675.553C431.026 675.553 436.759 676.486 441.959 678.353C447.159 680.086 452.159 682.953 456.959 686.953L448.159 698.553C444.426 695.886 440.759 693.953 437.159 692.753C433.693 691.42 429.826 690.753 425.559 690.753C417.026 690.753 410.359 694.153 405.559 700.953C400.893 707.753 398.559 717.82 398.559 731.153C398.559 744.486 400.893 754.353 405.559 760.753C410.226 767.02 416.893 770.153 425.559 770.153C429.693 770.153 433.493 769.553 436.959 768.353C440.426 767.02 444.293 764.953 448.559 762.153L456.959 774.153C447.359 781.886 436.626 785.753 424.759 785.753C410.493 785.753 399.226 780.953 390.959 771.353C382.826 761.753 378.759 748.486 378.759 731.553C378.759 720.353 380.626 710.553 384.359 702.153C388.093 693.753 393.359 687.22 400.159 682.553C407.093 677.886 415.293 675.553 424.759 675.553ZM507.467 675.553C517.067 675.553 524.534 678.42 529.867 684.153C535.334 689.886 538.067 697.753 538.067 707.753V783.353H519.667V710.353C519.667 702.886 518.201 697.62 515.267 694.553C512.467 691.486 508.334 689.953 502.867 689.953C497.401 689.953 492.534 691.553 488.267 694.753C484.001 697.953 480.001 702.486 476.267 708.353V783.353H457.867V635.753L476.267 633.753V692.553C484.534 681.22 494.934 675.553 507.467 675.553ZM630.655 727.553C630.655 730.62 630.521 733.753 630.255 736.953H563.055C563.855 748.553 566.788 757.086 571.855 762.553C576.921 768.02 583.455 770.753 591.455 770.753C596.521 770.753 601.188 770.02 605.455 768.553C609.721 767.086 614.188 764.753 618.855 761.553L626.855 772.553C615.655 781.353 603.388 785.753 590.055 785.753C575.388 785.753 563.921 780.953 555.655 771.353C547.521 761.753 543.455 748.553 543.455 731.753C543.455 720.82 545.188 711.153 548.655 702.753C552.255 694.22 557.321 687.553 563.855 682.753C570.521 677.953 578.321 675.553 587.255 675.553C601.255 675.553 611.988 680.153 619.455 689.353C626.921 698.553 630.655 711.286 630.655 727.553ZM612.455 722.153C612.455 711.753 610.388 703.82 606.255 698.353C602.121 692.886 595.921 690.153 587.655 690.153C572.588 690.153 564.388 701.22 563.055 723.353H612.455V722.153ZM681.839 675.553C685.572 675.553 689.039 675.953 692.239 676.753L688.839 694.753C685.639 693.953 682.572 693.553 679.639 693.553C673.106 693.553 667.839 695.953 663.839 700.753C659.839 705.553 656.706 713.02 654.439 723.153V783.353H636.039V677.953H651.839L653.639 699.353C656.439 691.486 660.239 685.553 665.039 681.553C669.839 677.553 675.439 675.553 681.839 675.553ZM677.972 757.953C681.972 757.953 685.305 759.286 687.972 761.953C690.639 764.62 691.972 767.886 691.972 771.753C691.972 775.62 690.639 778.953 687.972 781.753C685.305 784.42 681.972 785.753 677.972 785.753C674.105 785.753 670.839 784.42 668.172 781.753C665.505 778.953 664.172 775.62 664.172 771.753C664.172 767.886 665.505 764.62 668.172 761.953C670.839 759.286 674.105 757.953 677.972 757.953ZM715.619 677.953V783.353H697.219V677.953H715.619ZM706.219 627.353C710.085 627.353 713.219 628.553 715.619 630.953C718.019 633.353 719.219 636.353 719.219 639.953C719.219 643.553 718.019 646.553 715.619 648.953C713.219 651.22 710.085 652.353 706.219 652.353C702.485 652.353 699.419 651.22 697.019 648.953C694.619 646.553 693.419 643.553 693.419 639.953C693.419 636.353 694.619 633.353 697.019 630.953C699.419 628.553 702.485 627.353 706.219 627.353ZM769.264 675.553C784.064 675.553 795.531 680.486 803.664 690.353C811.931 700.22 816.064 713.62 816.064 730.553C816.064 741.486 814.197 751.153 810.464 759.553C806.731 767.82 801.331 774.286 794.264 778.953C787.197 783.486 778.797 785.753 769.064 785.753C754.264 785.753 742.731 780.82 734.464 770.953C726.197 761.086 722.064 747.686 722.064 730.753C722.064 719.82 723.931 710.22 727.664 701.953C731.397 693.553 736.797 687.086 743.864 682.553C750.931 677.886 759.397 675.553 769.264 675.553ZM769.264 690.353C750.997 690.353 741.864 703.82 741.864 730.753C741.864 757.553 750.931 770.953 769.064 770.953C787.197 770.953 796.264 757.486 796.264 730.553C796.264 703.753 787.264 690.353 769.264 690.353Z" fill="white"/>
<path d="M323 546.353C281 330.353 297 76.3531 485 238.353C673 400.353 560 424.353 549 435.353C531 453.353 393 586.353 565 528.353C702.6 481.953 703.667 521.02 687 546.353" stroke="white" stroke-width="10" stroke-linecap="round"/>
<circle cx="520.68" cy="361.033" r="21.9004" transform="rotate(-55 520.68 361.033)" stroke="white" stroke-width="6"/>
<path d="M488.215 334.019C497.058 323.48 516.728 322.926 532.671 336.304C548.614 349.682 551.483 369.149 542.641 379.687C533.798 390.226 514.128 390.78 498.185 377.402C482.242 364.025 479.372 344.557 488.215 334.019Z" stroke="white" stroke-width="10"/>
<circle cx="526.213" cy="364.566" r="4.5" transform="rotate(-10 526.213 364.566)" fill="white"/>
<path d="M552 432.195C540.422 435.423 497 449.853 468 418.353" stroke="white" stroke-width="8" stroke-linecap="round"/>
<path d="M483.339 357.135L497 371.353L500.813 364.664L502.289 354.716L505.922 343.926L515.661 338.98L528.5 340.853L530.873 336.297L520.794 328.848L508.504 324.556L494.792 327.897L483.973 337.186L483.339 357.135Z" fill="white"/>
</svg>
