<svg width="486" height="453" viewBox="0 0 486 453" fill="none" xmlns="http://www.w3.org/2000/svg">
<path d="M67.1387 406.353C25.1387 190.353 41.1387 -63.6469 229.139 98.3531C417.139 260.353 304.139 284.353 293.139 295.353C275.139 313.353 137.139 446.353 309.139 388.353C446.739 341.953 447.805 381.02 431.139 406.353" stroke="white" stroke-width="10" stroke-linecap="round"/>
<circle cx="264.818" cy="221.033" r="21.9004" transform="rotate(-55 264.818 221.033)" stroke="white" stroke-width="6"/>
<path d="M232.353 194.019C241.196 183.48 260.867 182.926 276.81 196.304C292.753 209.682 295.622 229.149 286.779 239.687C277.937 250.226 258.267 250.78 242.324 237.402C226.381 224.025 223.511 204.557 232.353 194.019Z" stroke="white" stroke-width="10"/>
<circle cx="270.352" cy="224.566" r="4.5" transform="rotate(-10 270.352 224.566)" fill="white"/>
<path d="M296.139 292.195C284.56 295.423 241.139 309.853 212.139 278.353" stroke="white" stroke-width="8" stroke-linecap="round"/>
<path d="M227.478 217.135L241.139 231.353L244.952 224.664L246.427 214.716L250.061 203.926L259.799 198.98L272.639 200.853L275.012 196.297L264.933 188.848L252.643 184.556L238.93 187.897L228.112 197.186L227.478 217.135Z" fill="white"/>
</svg>
